PathFileType	4	(X/Y/Z)	Kaydara	
DataRate	CameraRate	NumFrames	NumMarkers	Units	OrigDataRate	OrigDataStartFrame	OrigNumFrames	
120.00	120.00	4	72	mm	120.00	131	261	
Frame#	Time	Hips			RightUpLeg			RightLeg			RightFoot			RightFoot_End			LeftUpLeg			LeftLeg			LeftFoot			LeftFoot_End			Spine			Spine1			Spine2			Spine3			Neck			Head			Head_End			RightShoulder			RightArm			RightForeArm			RightHand			RightHandThumb1			RightHandThumb2			RightHandThumb3			RightHandThumb3_End			RightInHandIndex			RightHandIndex1			RightHandIndex2			RightHandIndex3			RightHandIndex3_End			RightInHandMiddle			RightHandMiddle1			RightHandMiddle2			RightHandMiddle3			RightHandMiddle3_End			RightInHandRing			RightHandRing1			RightHandRing2			RightHandRing3			RightHandRing3_End			RightInHandPinky			RightHandPinky1			RightHandPinky2			RightHandPinky3			RightHandPinky3_End			LeftShoulder			LeftArm			LeftForeArm			LeftHand			LeftHandThumb1			LeftHandThumb2			LeftHandThumb3			LeftHandThumb3_End			LeftInHandIndex			LeftHandIndex1			LeftHandIndex2			LeftHandIndex3			LeftHandIndex3_End			LeftInHandMiddle			LeftHandMiddle1			LeftHandMiddle2			LeftHandMiddle3			LeftHandMiddle3_End			LeftInHandRing			LeftHandRing1			LeftHandRing2			LeftHandRing3			LeftHandRing3_End			LeftInHandPinky			LeftHandPinky1			LeftHandPinky2			LeftHandPinky3			LeftHandPinky3_End			
		X1	Y1	Z1	X2	Y2	Z2	X3	Y3	Z3	X4	Y4	Z4	X5	Y5	Z5	X6	Y6	Z6	X7	Y7	Z7	X8	Y8	Z8	X9	Y9	Z9	X10	Y10	Z10	X11	Y11	Z11	X12	Y12	Z12	X13	Y13	Z13	X14	Y14	Z14	X15	Y15	Z15	X16	Y16	Z16	X17	Y17	Z17	X18	Y18	Z18	X19	Y19	Z19	X20	Y20	Z20	X21	Y21	Z21	X22	Y22	Z22	X23	Y23	Z23	X24	Y24	Z24	X25	Y25	Z25	X26	Y26	Z26	X27	Y27	Z27	X28	Y28	Z28	X29	Y29	Z29	X30	Y30	Z30	X31	Y31	Z31	X32	Y32	Z32	X33	Y33	Z33	X34	Y34	Z34	X35	Y35	Z35	X36	Y36	Z36	X37	Y37	Z37	X38	Y38	Z38	X39	Y39	Z39	X40	Y40	Z40	X41	Y41	Z41	X42	Y42	Z42	X43	Y43	Z43	X44	Y44	Z44	X45	Y45	Z45	X46	Y46	Z46	X47	Y47	Z47	X48	Y48	Z48	X49	Y49	Z49	X50	Y50	Z50	X51	Y51	Z51	X52	Y52	Z52	X53	Y53	Z53	X54	Y54	Z54	X55	Y55	Z55	X56	Y56	Z56	X57	Y57	Z57	X58	Y58	Z58	X59	Y59	Z59	X60	Y60	Z60	X61	Y61	Z61	X62	Y62	Z62	X63	Y63	Z63	X64	Y64	Z64	X65	Y65	Z65	X66	Y66	Z66	X67	Y67	Z67	X68	Y68	Z68	X69	Y69	Z69	X70	Y70	Z70	X71	Y71	Z71	X72	Y72	Z72	

131	1.083	7081.203	893.81699	129.612	7159.533124142168	894.8384976484815	92.7956154653202	7047.972935070755	493.94927651453156	47.14211774393696	7055.81411539443	113.46920448409031	17.386050668824517	6949.133832213446	39.66994341354456	157.27344226379097	7014.435501935273	866.5916042287059	180.6351770151613	6907.5203036994235	479.02349715324107	297.11001391333616	6788.806974670997	86.08409397441406	457.49367846473893	6644.295817207641	39.404246617824974	342.39994718282867	7027.224508928901	1014.5408046559285	75.73263631520082	6972.50615504413	1077.4445769692281	26.105234150009807	6911.734861466542	1137.226835039066	-28.23924530937741	6848.930134074841	1185.3041383559832	-84.63687502208919	6780.053602448627	1237.7763956013289	-141.90932856802954	6707.569170166806	1278.6982254973846	-185.55995679498878	6568.397820778343	1355.6397722473553	-197.56781810582865	6823.581555190158	1233.2835839443337	-136.0644992394796	6901.811097534079	1280.5401708841086	-192.83270978278358	7021.182098917448	1096.7331790890235	-275.7366926306855	7193.234827544077	1032.2692353807552	-379.2688093387575	7205.334341379698	1054.3317864191133	-396.86253598676103	7207.981075684179	1060.2271294841905	-425.2311785802307	7211.083218654364	1060.5452219891927	-444.84114047499605	7214.746340342044	1057.5703590049584	-461.0642479967927	7212.5997768238185	1043.4791432450434	-397.1179537146812	7239.751426791598	1043.531130200992	-427.4744763588223	7249.873795904388	1039.8279443056038	-453.06271310299394	7248.219219177152	1038.5542934170994	-469.18404750170674	7241.4887930571	1038.193925990699	-482.67143678459655	7214.661923858307	1032.99841091442	-395.8765099031214	7242.262743797879	1027.381151048452	-424.81257989111543	7253.48132979146	1021.9524897617723	-452.4777370316421	7251.568171196039	1019.7499396727644	-471.8043508301263	7244.24422061486	1019.0318948735955	-486.5021143085035	7215.5286694309425	1025.6056674821748	-394.18454942682206	7241.317414774565	1014.1927254749893	-418.530590160056	7251.227834817688	1008.0513696044407	-442.3361168276889	7249.4526605236715	1005.17819720387	-460.81485404011266	7242.599566835202	1004.1482951488906	-474.5570638557052	7214.931931418978	1016.9794692832886	-391.6719396961933	7238.570733560635	1001.237951276985	-412.32777597613864	7246.599746731356	994.1705404424476	-430.8047069819247	7245.349970004757	991.0349831346855	-443.9998762490437	7239.305165882331	989.5242086892736	-456.01019662598264	6782.226204669537	1206.0049577533066	-110.22613812232622	6721.364130713089	1120.7637494812395	-75.60161966065297	6916.879143241974	1056.0878402232906	-179.46619062922292	7114.367746739697	1027.9483101808796	-278.18149971803257	7129.15392847032	1052.775421188613	-286.9346108876606	7156.304209030073	1062.0836194816272	-278.33494453041993	7177.022659129398	1064.8754339278444	-272.17038920006894	7195.843987804375	1064.0457933292585	-266.8809198937779	7136.65563094774	1042.5430735785906	-288.9833849286849	7178.937660905735	1048.0461096988838	-296.7157783292522	7210.214391136347	1048.0353708118184	-292.0776474732093	7225.91986701728	1048.4998960402377	-283.23776552123746	7236.397043128334	1049.2022254883645	-271.9032512368742	7140.197633842326	1032.1316654613734	-287.76002901876024	7183.353595623817	1031.8687206025363	-294.6431159795201	7217.8152564217635	1030.4605916095609	-289.3829781870685	7236.922890543287	1030.3509322087043	-278.62246968281227	7248.4643815186355	1030.7936485174541	-266.1740158306439	7141.622529136276	1024.651540128675	-286.80053334078264	7181.540015763016	1017.9693093605908	-292.43502909384387	7211.848772059667	1015.3149448488467	-287.6348827395871	7230.423960153809	1014.4513325209091	-277.14111803556705	7241.344272480429	1014.5084770106016	-265.3822199449027	7142.028491486967	1015.7450937425995	-284.66615377447704	7178.909336864431	1004.1807499301284	-288.863414988507	7203.4294891625705	999.85791914461	-284.6582755180678	7217.099251357327	998.1650840713922	-276.829277301829	7226.842478352415	997.603983636684	-266.31220397431565
132	1.092	7081.203	893.81699	129.612	7158.978610352865	894.5098015122323	92.67704744102276	7047.576706972707	493.5707230050367	47.32838482963783	7056.395849344039	113.53705725231738	16.690596211683214	6950.0669329709035	39.49930312691983	156.58305535359904	7014.969374368928	866.9117415771093	180.75751794169085	6908.0201469643935	479.34301816187525	297.1752155193675	6789.352112460539	86.21593361787349	456.8908342119855	6644.878663682089	39.37543016809677	341.84386956288125	7027.38156663748	1014.5803376601737	75.66981134572846	6972.729283442978	1077.547344482692	26.046815802453704	6912.019898418423	1137.408125070153	-28.28219017064201	6849.25971259605	1185.5801468973903	-84.64741809687129	6780.435030237885	1238.146960616761	-141.89469065641143	6708.026998700599	1279.1818655716536	-185.5406876803188	6568.853474198762	1356.114767273868	-197.51636308421618	6823.793171389923	1233.4493854747225	-136.02908092869765	6901.45288534267	1280.1263864771915	-192.4634186474169	7020.5620600353495	1097.008481826077	-274.1553888743822	7191.280568271394	1032.7887208954346	-376.84688434791883	7203.371789974322	1054.8936406643927	-394.3009423944724	7206.053745424914	1060.8401817293152	-422.5129864507007	7209.166097458889	1061.1920678096153	-442.01359182442354	7212.8254805577235	1058.2437852968465	-458.1452758185946	7210.575379748371	1044.0374153405028	-394.54154116776346	7237.608981745522	1044.1452406233097	-424.66484733763696	7247.701310223566	1040.485182356771	-450.0957271509644	7246.077484212091	1039.2378703627683	-466.140285888708	7239.405850396736	1038.898984231272	-479.5783289493328	7212.605167204313	1033.549881655697	-393.307629951784	7240.073328551251	1027.9834047570512	-422.02030058040805	7251.255312447827	1022.6007310726627	-449.5155065773049	7249.377419623973	1020.4294428855064	-468.7503363666053	7242.116907065714	1019.7346521536592	-483.39451597587197	7213.451416934447	1026.150863760456	-391.6268440474043	7239.1015911666545	1014.7778568097855	-415.7820864521266	7248.976418661329	1008.675407456405	-439.4416315876883	7247.233301487954	1005.8317648676967	-457.83297689554763	7240.438927027805	1004.8234314066862	-471.5253451052256	7212.839566934305	1017.5161660406054	-389.13464630135985	7236.339749491537	1001.8059053108811	-409.62766149415654	7244.3351136789215	994.7676401078863	-427.9918806470379	7243.106229376413	991.6526500324001	-441.125330173996	7237.112007848254	990.1604225055682	-453.0926640244305	6782.741124294297	1206.5249974842998	-110.24008984359045	6722.314390194979	1122.0828226781969	-75.6444431216203	6916.741326870523	1056.9447151104089	-178.38911558315436	7112.907678140902	1028.4715160979542	-276.19414413736	7127.608395694312	1053.283718236095	-284.8776252021099	7154.579378289003	1062.5384944893817	-276.2765851573355	7175.162367050216	1065.2925207984822	-270.1057944638556	7193.861701014658	1064.4308773773664	-264.8066111952937	7135.068516105648	1043.0513711998476	-286.8909225062975	7177.098658998736	1048.5144424204086	-294.48713183223634	7208.177394353175	1048.457380341157	-289.80852973849164	7223.775492112676	1048.8865231410177	-280.9881593722195	7234.174391759374	1049.55512587636	-269.6999277728122	7138.589381449582	1032.6388830721785	-285.6605302430173	7181.488233351611	1032.3363787356825	-292.40696588714854	7215.731841968908	1030.877665946009	-287.1022470806431	7234.708968463359	1030.7253016256957	-276.36507765535197	7246.164344226186	1031.131106399373	-263.96716785648755	7140.005881993168	1025.1591907284685	-284.6989256077378	7179.685984759292	1018.44239813058	-290.2073304374286	7209.803045358758	1015.7439681807655	-285.3681210924606	7228.251477261396	1014.8391761191245	-274.8967595118883	7239.090406753263	1014.8616203691455	-263.185333815381	7140.40859072494	1016.2530132787329	-282.5708894644117	7177.069994846518	1004.6577136135896	-286.65431074876096	7201.435119143267	1000.2997831367852	-282.41812411580236	7215.01168708373	998.5770014495783	-274.6055795651339	7224.682397502248	997.9852141388039	-264.1306239261942
133	1.1	7081.203	893.81699	129.612	7158.4123524188935	894.1747757792608	92.55353712587066	7047.176676087464	493.1850546468514	47.507136818319694	7056.984875115422	113.60527188083901	15.968514749486765	6951.013296442688	39.324214727491615	155.86530697490224	7015.51525357309	867.238273074374	180.88464373639567	6908.532215423448	479.6679093103149	297.24150614199453	6789.913331201341	86.34631200417743	456.2686792562958	6645.477243494517	39.33938352418201	341.2723728418887	7027.538965893265	1014.6197374992321	75.6068434954029	6972.952246912344	1077.6499938978125	25.98905780512466	6912.304050016455	1137.5893163099267	-28.323331745638292	6849.587273972357	1185.8559603660808	-84.65446377237267	6780.81348381016	1238.5172311753042	-141.87502566616809	6708.482776369751	1279.6663993310356	-185.51630117436886	6569.307156493665	1356.5908526601854	-197.4578904824245	6823.998541034228	1233.609964976208	-135.9899360484636	6901.072348841073	1279.686565125344	-192.08914965282892	7019.900490873552	1097.2645056831536	-272.53157569079593	7189.242429871071	1033.2709636120462	-374.3482670169491	7201.32172234255	1055.4129630246937	-391.6606531846751	7204.036634854016	1061.4071201879995	-419.70879118440575	7207.157497047587	1061.790612224544	-439.0944577772508	7210.811620720337	1058.8673489339526	-455.12964254834725	7208.462443614512	1044.5536087014705	-391.88481081055187	7235.371510217285	1044.7117188156649	-421.76610079395135	7245.430624704488	1041.091785838508	-447.0317374318281	7243.8369156909675	1039.8696005308263	-462.994734852588	7237.224452954122	1039.5516337261527	-476.3795496736018	7210.459828693013	1034.060342438746	-390.6573129930798	7237.788980276923	1028.5398096501256	-419.13739641604695	7248.930916384911	1023.2000075319429	-446.4539244744054	7247.087532971319	1021.0585955981992	-465.5911383130574	7239.890876869033	1020.3864813922715	-480.17745811839427	7211.285702183819	1026.6559390316966	-388.9871484231629	7236.79167125173	1015.3192792457213	-412.94291590778266	7246.627930552078	1009.2531918259899	-436.44876352523784	7244.916155605463	1006.4378334875208	-454.74703331301623	7238.180900762529	1005.4505687126136	-468.38551185970107	7210.65918973939	1018.0139891303497	-386.5148781780422	7234.015807529547	1002.3324357110479	-406.8368559964059	7241.975207740191	995.3215615840555	-425.08205125209753	7240.766727209536	992.226367145674	-438.1495708712182	7234.82346182877	990.7523225012951	-450.07029514566705	6783.256907403322	1207.0498713098973	-110.24845210739986	6723.279196935306	1123.4263078223314	-75.67420128663485	6916.589809736783	1057.8019231558121	-177.27383900227045	7111.396319265969	1028.9682554597812	-274.1481752790271	7126.007327616149	1053.7607353316569	-282.7637514035488	7152.794524131905	1062.958969070941	-274.1653508992152	7173.238817261275	1065.673243999417	-267.9906114658244	7191.813367173281	1064.7781406111537	-262.6831857506894	7133.424994857759	1043.5285134071319	-284.7395229559812	7175.195425485212	1048.9460382415712	-292.19883839129795	7206.071210279353	1048.8397629508731	-287.4813306585278	7221.559813681582	1049.23253444442	-278.6830447514741	7231.879335984026	1049.8671368906785	-267.44430434453875	7136.924722457947	1033.1157575626305	-283.50083474519647	7179.558831770395	1032.7686888215496	-290.1092448371485	7213.57900653841	1031.2563651759876	-284.7614920699753	7232.423084710244	1031.0601636105823	-274.05068838997965	7243.791146758726	1031.4287870254432	-261.70679570175565	7138.333020558358	1025.6372046915087	-282.53622498644245	7177.769044779505	1018.8819493584406	-287.91645804841244	7207.68975765137	1016.1369528938056	-283.03937167435964	7226.009003188064	1015.1899618069266	-272.5932464077775	7236.765432680449	1015.1774866743247	-260.93251777421347	7138.732981074223	1016.7323496034792	-280.41371197564877	7175.169088365134	1005.103130832919	-284.3807970632278	7199.3755490360445	1000.7083292135006	-280.1142687469976	7212.857193461524	998.9549693329441	-272.32012627725493	7222.454422607065	998.3323654190675	-261.89007687714553
134	1.108	7081.203	893.81699	129.612	7157.83447371739	893.8335135988674	92.42515591124368	7046.772944197185	492.79236587399197	47.67842506424383	7057.581046722976	113.67385862681316	15.220065947851467	6951.972719157934	39.14473473554875	155.12045675830308	7016.073017159646	867.5711048072521	181.01648113651592	6909.05635950175	479.99808591837933	297.30882492807586	6790.490415437159	86.47523534077719	455.62740485282	6646.091333680694	39.2961774566527	340.68562333393317	7027.696683730701	1014.6590030965798	75.54374940648835	6973.1750138964535	1077.7525203751347	25.931980823553943	6912.587277639577	1137.770399020508	-28.36264783904404	6849.912777422044	1186.1315641324884	-84.65799349968924	6781.188917422816	1238.887187456325	-141.85031545992652	6708.936437390482	1280.151789045818	-185.48676722858278	6569.758801610629	1357.0679917152645	-197.39236445873917	6824.1976529027725	1233.7653668743985	-135.94703029632913	6900.669622454335	1279.2210139067001	-191.70985455691974	7019.197796951171	1097.5015559988722	-270.86564068393267	7187.121322639197	1033.7164764854308	-371.7735823547877	7199.185096969047	1055.8903160137115	-388.9423146931325	7201.930739134106	1061.9285256429716	-416.81930407081273	7205.058438839088	1062.34144582052	-436.08449808254886	7208.705804747373	1059.4416461789212	-452.01815109340254	7206.261936202471	1045.0282829904	-389.148419575283	7233.040060452044	1045.2311717234666	-418.77896707818786	7243.062831213046	1041.6483782300695	-443.87154100639094	7241.498618981051	1040.4501074024438	-459.7482331763074	7234.9457080861275	1040.1524910258188	-473.07597244129227	7208.226874656328	1034.5303425636662	-387.92622291998333	7235.410743010023	1029.050955545813	-416.1646066615119	7246.509232769172	1023.7509254583615	-443.2938034805345	7244.699618469049	1021.6380033923407	-462.32762009913205	7237.567239323653	1020.9879802279592	-476.8518422980704	7209.032488580739	1027.121434224959	-386.2661293684252	7234.388685953519	1015.817563215481	-410.013815064758	7244.183441891537	1009.7853058871191	-433.3583138336778	7242.502309453586	1006.9969846547651	-451.5578736805859	7235.8265764095495	1006.0302807767773	-465.1384505116698	7208.391756374747	1018.4734672303965	-383.8133043486901	7231.5999224331235	1002.8180912036845	-403.95609342787145	7239.5210748521295	995.8328611102842	-422.0760051454891	7238.332519913117	992.7566882585111	-435.07342087648397	7232.440585477258	991.300454730122	-446.94394459484715	6783.773478508171	1207.5794973327506	-110.25122591251389	6724.25836621507	1124.7938853835644	-75.69102987026693	6916.424792159052	1058.6594982732383	-176.12070795378796	7109.8342760735995	1029.4389335851927	-272.0440971702777	7124.351375453522	1054.2069421643732	-280.59347765029906	7150.950336981885	1063.3455650344822	-272.00168722579036	7171.2527286837785	1066.0181593444886	-265.8252600679132	7189.69972998174	1065.088165234395	-260.51104559880616	7131.725728736432	1043.9749691954814	-282.52969169063846	7173.228703135352	1049.3414480086367	-289.8514037572453	7203.896628193043	1049.1831178506757	-285.0965351762802	7219.27363713553	1049.5385500229172	-276.32287873241825	7229.512685946496	1050.1388896629965	-265.1368048848748	7135.20431834709	1033.5627484415734	-281.2814581334493	7177.566131571148	1033.1661850755654	-287.75047428787195	7211.357541287715	1031.597274761141	-282.36121322577793	7230.066049769876	1031.3561280619388	-271.67976896619234	7241.34560471454	1031.6873120385465	-259.39333049153083	7136.604604327014	1026.086032824533	-280.31295452004537	7175.789924953279	1019.2884735081211	-285.56294737115047	7205.5096816384275	1016.4944524379117	-280.64915262320517	7223.697329057932	1015.5042657132005	-270.23106574748783	7234.370146088419	1015.4566626747312	-258.62422537540573	7137.00231639835	1017.1835404245712	-278.19515101483904	7173.207332128517	1005.5174862613728	-282.0434199285979	7197.251527486658	1001.0840735871637	-277.7472435770428	7210.636532113532	999.2995190816846	-269.973429889701	7220.159319189933	998.6459774425418	-259.5910461937957
